<svg width="101" height="34" viewBox="0 0 101 34" fill="none" xmlns="http://www.w3.org/2000/svg">
<path d="M38.0001 11.7461C39.1039 11.7461 40.0803 11.9262 40.9294 12.2863C41.7955 12.6292 42.5257 13.1265 43.12 13.7782C43.7314 14.4126 44.1984 15.1672 44.521 16.0417C44.8437 16.8991 45.005 17.8509 45.005 18.8969C45.005 20.2002 44.7333 21.3577 44.1899 22.3694C43.6634 23.364 42.9332 24.1442 41.9992 24.7101C41.0652 25.276 39.9784 25.559 38.7388 25.559C38.2123 25.559 37.7114 25.4904 37.2359 25.3532C36.7774 25.216 36.3528 25.0188 35.9623 24.7616C35.5887 24.5044 35.2745 24.1871 35.0198 23.8098H34.9434V30.832H30.9951V18.8969C30.9951 17.4393 31.2838 16.1789 31.8612 15.1157C32.4386 14.0525 33.2537 13.2294 34.3065 12.6464C35.3594 12.0462 36.5906 11.7461 38.0001 11.7461ZM38.0001 15.1929C37.3887 15.1929 36.8538 15.3472 36.3953 15.6559C35.9538 15.9474 35.6141 16.359 35.3764 16.8906C35.1386 17.405 35.0198 17.988 35.0198 18.6397C35.0198 19.2913 35.1386 19.8743 35.3764 20.3888C35.6141 20.9032 35.9538 21.3148 36.3953 21.6235C36.8538 21.915 37.3887 22.0607 38.0001 22.0607C38.6114 22.0607 39.1378 21.915 39.5793 21.6235C40.0209 21.3148 40.3605 20.9032 40.5982 20.3888C40.853 19.8743 40.9803 19.2913 40.9803 18.6397C40.9803 17.988 40.853 17.405 40.5982 16.8906C40.3605 16.359 40.0209 15.9474 39.5793 15.6559C39.1378 15.3472 38.6114 15.1929 38.0001 15.1929Z" fill="url(#paint0_linear_1241_29662)"/>
<path d="M83.2153 25.4541C81.8662 25.4541 80.6538 25.1553 79.578 24.5576C78.5022 23.9599 77.6484 23.1403 77.0166 22.0986C76.4019 21.057 76.0945 19.8873 76.0945 18.5895C76.0945 17.2746 76.4019 16.1049 77.0166 15.0803C77.6484 14.0387 78.5022 13.219 79.578 12.6213C80.6538 12.0066 81.8662 11.6992 83.2153 11.6992C84.5643 11.6992 85.7681 12.0066 86.8269 12.6213C87.9027 13.219 88.7479 14.0387 89.3627 15.0803C89.9945 16.1049 90.3104 17.2746 90.3104 18.5895C90.3104 19.8873 89.9945 21.057 89.3627 22.0986C88.7479 23.1403 87.9027 23.9599 86.8269 24.5576C85.7511 25.1553 84.5472 25.4541 83.2153 25.4541ZM83.2153 21.9962C83.8471 21.9962 84.3935 21.8425 84.8546 21.5351C85.3156 21.2277 85.6742 20.8179 85.9304 20.3056C86.1865 19.7933 86.3146 19.2128 86.3146 18.5639C86.3146 17.932 86.1865 17.36 85.9304 16.8477C85.6742 16.3354 85.3156 15.9256 84.8546 15.6182C84.3935 15.3108 83.8471 15.1572 83.2153 15.1572C82.5834 15.1572 82.0285 15.3108 81.5503 15.6182C81.0893 15.9256 80.7307 16.3354 80.4745 16.8477C80.2184 17.36 80.0903 17.932 80.0903 18.5639C80.0903 19.2128 80.2184 19.7933 80.4745 20.3056C80.7307 20.8179 81.0893 21.2277 81.5503 21.5351C82.0285 21.8425 82.5834 21.9962 83.2153 21.9962Z" fill="url(#paint1_linear_1241_29662)"/>
<path d="M70.0596 25.3469V6.64844H74.0298V25.3469H70.0596Z" fill="url(#paint2_linear_1241_29662)"/>
<path d="M62.8525 25.1467V6.4668H66.9134V25.1467H62.8525Z" fill="url(#paint3_linear_1241_29662)"/>
<path d="M53.5267 25.5529C52.178 25.5529 50.9658 25.253 49.8903 24.6531C48.8147 24.0531 47.9611 23.2304 47.3294 22.1848C46.7148 21.1392 46.4075 19.9651 46.4075 18.6624C46.4075 17.3425 46.7148 16.1684 47.3294 15.14C47.9611 14.0944 48.8147 13.2716 49.8903 12.6717C50.9658 12.0546 52.178 11.7461 53.5267 11.7461C54.8755 11.7461 56.0791 12.0546 57.1376 12.6717C58.2131 13.2716 59.0582 14.0944 59.6729 15.14C60.3045 16.1684 60.6204 17.3425 60.6204 18.6624C60.6204 19.9651 60.3045 21.1392 59.6729 22.1848C59.0582 23.2304 58.2131 24.0531 57.1376 24.6531C56.062 25.253 54.8584 25.5529 53.5267 25.5529ZM53.5267 22.0819C54.1584 22.0819 54.7047 21.9277 55.1657 21.6191C55.6267 21.3106 55.9852 20.8992 56.2413 20.385C56.4974 19.8708 56.6254 19.288 56.6254 18.6367C56.6254 18.0025 56.4974 17.4282 56.2413 16.914C55.9852 16.3998 55.6267 15.9884 55.1657 15.6799C54.7047 15.3714 54.1584 15.2171 53.5267 15.2171C52.895 15.2171 52.3402 15.3714 51.8622 15.6799C51.4012 15.9884 51.0427 16.3998 50.7866 16.914C50.5305 17.4282 50.4025 18.0025 50.4025 18.6367C50.4025 19.288 50.5305 19.8708 50.7866 20.385C51.0427 20.8992 51.4012 21.3106 51.8622 21.6191C52.3402 21.9277 52.895 22.0819 53.5267 22.0819Z" fill="url(#paint4_linear_1241_29662)"/>
<path fill-rule="evenodd" clip-rule="evenodd" d="M14.3707 6.56953L7.42188 25.5181H12.7789L14.187 21.3855H14.213L15.6606 17.0427C15.6943 16.9416 15.7743 16.728 15.8869 16.436L18.4114 8.58989C18.4318 8.48786 18.4726 8.40622 18.5338 8.345C18.6155 8.28378 18.7073 8.25317 18.8093 8.25317C18.9114 8.25317 18.993 8.28378 19.0542 8.345C19.1359 8.38582 19.1971 8.46745 19.2379 8.58989L21.9034 17.1305H21.9024L23.275 21.3855H23.2786L24.6255 25.5181H30.1662L23.1868 6.53892C22.8398 5.57976 22.2684 4.87569 21.4725 4.42672C20.6766 3.95735 19.7787 3.72266 18.7787 3.72266C17.7787 3.72266 16.8808 3.96755 16.0849 4.45733C15.289 4.92671 14.7176 5.63078 14.3707 6.56953Z" fill="url(#paint5_linear_1241_29662)"/>
<path d="M21.6438 15.8563C22.0079 16.6923 22.4099 18.2504 22.793 19.0165L25.8517 14.2133L21.6438 15.8563Z" fill="#4D45BD"/>
<path d="M20.6858 12.9703L12.5096 17.9806C12.0798 18.2466 11.7727 18.6719 11.6556 19.1636C11.5385 19.6553 11.6208 20.1734 11.8845 20.6046C12.1483 21.0358 12.572 21.3451 13.0631 21.4647C13.5542 21.5844 14.0727 21.5048 14.5053 21.2433V21.2433L25.9552 14.2465L20.6858 12.9703Z" fill="#FFCC00"/>
<path d="M39.4154 29.6345C39.2315 29.6345 39.0619 29.5918 38.9065 29.5066C38.753 29.4194 38.6308 29.299 38.5399 29.1455C38.4508 28.9902 38.4062 28.8158 38.4062 28.6225C38.4062 28.4292 38.4508 28.2558 38.5399 28.1023C38.6308 27.9488 38.753 27.8294 38.9065 27.7442C39.0619 27.657 39.2315 27.6134 39.4154 27.6134C39.6011 27.6134 39.7707 27.657 39.9242 27.7442C40.0796 27.8294 40.2018 27.9488 40.2909 28.1023C40.3799 28.2558 40.4245 28.4292 40.4245 28.6225C40.4245 28.8158 40.3799 28.9902 40.2909 29.1455C40.2018 29.299 40.0796 29.4194 39.9242 29.5066C39.7707 29.5918 39.6011 29.6345 39.4154 29.6345ZM39.4154 29.3531C39.5461 29.3531 39.6627 29.3237 39.765 29.2649C39.8673 29.2043 39.9469 29.119 40.0038 29.0091C40.0625 28.8973 40.0919 28.7684 40.0919 28.6225C40.0919 28.4766 40.0625 28.3487 40.0038 28.2388C39.9469 28.1288 39.8673 28.0445 39.765 27.9858C39.6627 27.927 39.5461 27.8977 39.4154 27.8977C39.2846 27.8977 39.1681 27.927 39.0657 27.9858C38.9634 28.0445 38.8829 28.1288 38.8241 28.2388C38.7673 28.3487 38.7388 28.4766 38.7388 28.6225C38.7388 28.7684 38.7673 28.8973 38.8241 29.0091C38.8829 29.119 38.9634 29.2043 39.0657 29.2649C39.1681 29.3237 39.2846 29.3531 39.4154 29.3531Z" fill="#979797"/>
<path d="M42.1874 28.0227C42.3106 28.0227 42.4205 28.0483 42.5171 28.0995C42.6157 28.1506 42.6924 28.2264 42.7474 28.3269C42.8023 28.4273 42.8298 28.5486 42.8298 28.6907V29.6146H42.5086V28.7391C42.5086 28.5988 42.4735 28.4918 42.4034 28.4178C42.3333 28.342 42.2376 28.3041 42.1163 28.3041C41.995 28.3041 41.8984 28.342 41.8264 28.4178C41.7563 28.4918 41.7212 28.5988 41.7212 28.7391V29.6146H41.3972V28.0483H41.7212V28.2274C41.7743 28.163 41.8415 28.1127 41.923 28.0767C42.0064 28.0407 42.0945 28.0227 42.1874 28.0227Z" fill="#979797"/>
<path d="M44.221 28.2814C44.276 28.2056 44.3508 28.144 44.4456 28.0966C44.5422 28.0474 44.6493 28.0227 44.7668 28.0227C44.9051 28.0227 45.0302 28.0559 45.142 28.1222C45.2538 28.1885 45.3419 28.2833 45.4064 28.4065C45.4708 28.5278 45.503 28.667 45.503 28.8243C45.503 28.9816 45.4708 29.1228 45.4064 29.2479C45.3419 29.3711 45.2529 29.4677 45.1392 29.5378C45.0274 29.606 44.9032 29.6402 44.7668 29.6402C44.6455 29.6402 44.5375 29.6165 44.4427 29.5691C44.3499 29.5217 44.276 29.4611 44.221 29.3872V29.6146H43.897V27.5111H44.221V28.2814ZM45.1733 28.8243C45.1733 28.7163 45.1505 28.6235 45.1051 28.5458C45.0615 28.4662 45.0027 28.4065 44.9288 28.3667C44.8568 28.325 44.7791 28.3041 44.6957 28.3041C44.6142 28.3041 44.5365 28.325 44.4626 28.3667C44.3906 28.4084 44.3319 28.469 44.2864 28.5486C44.2428 28.6282 44.221 28.722 44.221 28.83C44.221 28.938 44.2428 29.0328 44.2864 29.1143C44.3319 29.1939 44.3906 29.2545 44.4626 29.2962C44.5365 29.3379 44.6142 29.3587 44.6957 29.3587C44.7791 29.3587 44.8568 29.3379 44.9288 29.2962C45.0027 29.2526 45.0615 29.1901 45.1051 29.1086C45.1505 29.0271 45.1733 28.9324 45.1733 28.8243Z" fill="#979797"/>
<path d="M47.1566 29.6402C47.0088 29.6402 46.8752 29.607 46.7558 29.5407C46.6365 29.4724 46.5426 29.3777 46.4744 29.2564C46.4062 29.1332 46.3721 28.9911 46.3721 28.83C46.3721 28.6708 46.4072 28.5297 46.4773 28.4065C46.5474 28.2833 46.6431 28.1885 46.7644 28.1222C46.8857 28.0559 47.0211 28.0227 47.1709 28.0227C47.3206 28.0227 47.4561 28.0559 47.5773 28.1222C47.6986 28.1885 47.7943 28.2833 47.8644 28.4065C47.9346 28.5297 47.9696 28.6708 47.9696 28.83C47.9696 28.9892 47.9336 29.1304 47.8616 29.2536C47.7896 29.3767 47.691 29.4724 47.566 29.5407C47.4428 29.607 47.3064 29.6402 47.1566 29.6402ZM47.1566 29.3587C47.24 29.3587 47.3177 29.3388 47.3897 29.299C47.4636 29.2592 47.5233 29.1996 47.5688 29.12C47.6143 29.0404 47.637 28.9437 47.637 28.83C47.637 28.7163 47.6152 28.6206 47.5717 28.5429C47.5281 28.4633 47.4703 28.4036 47.3983 28.3638C47.3263 28.324 47.2486 28.3041 47.1652 28.3041C47.0818 28.3041 47.0041 28.324 46.9321 28.3638C46.862 28.4036 46.8061 28.4633 46.7644 28.5429C46.7227 28.6206 46.7018 28.7163 46.7018 28.83C46.7018 28.9987 46.7445 29.1294 46.8297 29.2223C46.9169 29.3133 47.0259 29.3587 47.1566 29.3587Z" fill="#979797"/>
<path d="M48.8357 28.8243C48.8357 28.667 48.868 28.5278 48.9324 28.4065C48.9987 28.2852 49.0878 28.1914 49.1996 28.1251C49.3133 28.0568 49.4384 28.0227 49.5748 28.0227C49.698 28.0227 49.8051 28.0474 49.896 28.0966C49.9889 28.144 50.0628 28.2037 50.1177 28.2757V28.0483H50.4446V29.6146H50.1177V29.3815C50.0628 29.4554 49.9879 29.517 49.8932 29.5662C49.7984 29.6155 49.6904 29.6402 49.5691 29.6402C49.4346 29.6402 49.3114 29.606 49.1996 29.5378C49.0878 29.4677 48.9987 29.3711 48.9324 29.2479C48.868 29.1228 48.8357 28.9816 48.8357 28.8243ZM50.1177 28.83C50.1177 28.722 50.095 28.6282 50.0495 28.5486C50.0059 28.469 49.9481 28.4084 49.8761 28.3667C49.8041 28.325 49.7264 28.3041 49.643 28.3041C49.5597 28.3041 49.482 28.325 49.4099 28.3667C49.3379 28.4065 49.2792 28.4662 49.2337 28.5458C49.1901 28.6235 49.1683 28.7163 49.1683 28.8243C49.1683 28.9324 49.1901 29.0271 49.2337 29.1086C49.2792 29.1901 49.3379 29.2526 49.4099 29.2962C49.4839 29.3379 49.5615 29.3587 49.643 29.3587C49.7264 29.3587 49.8041 29.3379 49.8761 29.2962C49.9481 29.2545 50.0059 29.1939 50.0495 29.1143C50.095 29.0328 50.1177 28.938 50.1177 28.83Z" fill="#979797"/>
<path d="M51.8481 28.2757C51.8955 28.1961 51.958 28.1345 52.0357 28.0909C52.1153 28.0455 52.2091 28.0227 52.3171 28.0227V28.3581H52.2347C52.1077 28.3581 52.0111 28.3904 51.9448 28.4548C51.8803 28.5192 51.8481 28.631 51.8481 28.7902V29.6146H51.5241V28.0483H51.8481V28.2757Z" fill="#979797"/>
<path d="M53.1608 28.8243C53.1608 28.667 53.193 28.5278 53.2574 28.4065C53.3238 28.2852 53.4128 28.1914 53.5246 28.1251C53.6383 28.0568 53.7644 28.0227 53.9027 28.0227C54.005 28.0227 54.1055 28.0455 54.204 28.0909C54.3045 28.1345 54.3841 28.1933 54.4428 28.2672V27.5111H54.7697V29.6146H54.4428V29.3786C54.3897 29.4544 54.3158 29.517 54.2211 29.5662C54.1282 29.6155 54.0212 29.6402 53.8999 29.6402C53.7634 29.6402 53.6383 29.606 53.5246 29.5378C53.4128 29.4677 53.3238 29.3711 53.2574 29.2479C53.193 29.1228 53.1608 28.9816 53.1608 28.8243ZM54.4428 28.83C54.4428 28.722 54.4201 28.6282 54.3746 28.5486C54.331 28.469 54.2732 28.4084 54.2012 28.3667C54.1292 28.325 54.0515 28.3041 53.9681 28.3041C53.8847 28.3041 53.807 28.325 53.735 28.3667C53.663 28.4065 53.6042 28.4662 53.5588 28.5458C53.5152 28.6235 53.4934 28.7163 53.4934 28.8243C53.4934 28.9324 53.5152 29.0271 53.5588 29.1086C53.6042 29.1901 53.663 29.2526 53.735 29.2962C53.8089 29.3379 53.8866 29.3587 53.9681 29.3587C54.0515 29.3587 54.1292 29.3379 54.2012 29.2962C54.2732 29.2545 54.331 29.1939 54.3746 29.1143C54.4201 29.0328 54.4428 28.938 54.4428 28.83Z" fill="#979797"/>
<path d="M56.014 27.8408C55.9552 27.8408 55.906 27.8209 55.8662 27.7811C55.8264 27.7413 55.8065 27.692 55.8065 27.6333C55.8065 27.5745 55.8264 27.5253 55.8662 27.4855C55.906 27.4457 55.9552 27.4258 56.014 27.4258C56.0708 27.4258 56.1192 27.4457 56.159 27.4855C56.1988 27.5253 56.2187 27.5745 56.2187 27.6333C56.2187 27.692 56.1988 27.7413 56.159 27.7811C56.1192 27.8209 56.0708 27.8408 56.014 27.8408ZM56.1732 28.0483V29.6146H55.8491V28.0483H56.1732Z" fill="#979797"/>
<path d="M58.0427 28.0227C58.1658 28.0227 58.2758 28.0483 58.3724 28.0995C58.4709 28.1506 58.5477 28.2264 58.6026 28.3269C58.6576 28.4273 58.6851 28.5486 58.6851 28.6907V29.6146H58.3639V28.7391C58.3639 28.5988 58.3288 28.4918 58.2587 28.4178C58.1886 28.342 58.0929 28.3041 57.9716 28.3041C57.8503 28.3041 57.7537 28.342 57.6817 28.4178C57.6115 28.4918 57.5765 28.5988 57.5765 28.7391V29.6146H57.2524V28.0483H57.5765V28.2274C57.6295 28.163 57.6968 28.1127 57.7783 28.0767C57.8617 28.0407 57.9498 28.0227 58.0427 28.0227Z" fill="#979797"/>
<path d="M60.3833 28.0227C60.5046 28.0227 60.6116 28.0474 60.7045 28.0966C60.7992 28.144 60.8732 28.2037 60.9262 28.2757V28.0483H61.2531V29.6402C61.2531 29.7842 61.2228 29.9121 61.1622 30.0239C61.1015 30.1376 61.0134 30.2267 60.8978 30.2911C60.7841 30.3555 60.6476 30.3878 60.4885 30.3878C60.2762 30.3878 60.1 30.3375 59.9597 30.2371C59.8195 30.1386 59.7399 30.004 59.721 29.8335H60.0422C60.0668 29.9149 60.1189 29.9803 60.1985 30.0296C60.28 30.0808 60.3767 30.1063 60.4885 30.1063C60.6192 30.1063 60.7244 30.0665 60.804 29.987C60.8855 29.9074 60.9262 29.7918 60.9262 29.6402V29.3786C60.8713 29.4525 60.7964 29.5151 60.7017 29.5662C60.6088 29.6155 60.5027 29.6402 60.3833 29.6402C60.2468 29.6402 60.1218 29.606 60.0081 29.5378C59.8963 29.4677 59.8072 29.3711 59.7409 29.2479C59.6764 29.1228 59.6442 28.9816 59.6442 28.8243C59.6442 28.667 59.6764 28.5278 59.7409 28.4065C59.8072 28.2852 59.8963 28.1914 60.0081 28.1251C60.1218 28.0568 60.2468 28.0227 60.3833 28.0227ZM60.9262 28.83C60.9262 28.722 60.9035 28.6282 60.858 28.5486C60.8144 28.469 60.7566 28.4084 60.6846 28.3667C60.6126 28.325 60.5349 28.3041 60.4515 28.3041C60.3681 28.3041 60.2904 28.325 60.2184 28.3667C60.1464 28.4065 60.0877 28.4662 60.0422 28.5458C59.9986 28.6235 59.9768 28.7163 59.9768 28.8243C59.9768 28.9324 59.9986 29.0271 60.0422 29.1086C60.0877 29.1901 60.1464 29.2526 60.2184 29.2962C60.2923 29.3379 60.37 29.3587 60.4515 29.3587C60.5349 29.3587 60.6126 29.3379 60.6846 29.2962C60.7566 29.2545 60.8144 29.1939 60.858 29.1143C60.9035 29.0328 60.9262 28.938 60.9262 28.83Z" fill="#979797"/>
<path d="M65.8055 27.639V29.6146H65.4814V28.2615L64.8788 29.6146H64.6543L64.0488 28.2615V29.6146H63.7247V27.639H64.0744L64.768 29.1882L65.4587 27.639H65.8055Z" fill="#979797"/>
<path d="M66.7772 28.8243C66.7772 28.667 66.8094 28.5278 66.8738 28.4065C66.9402 28.2852 67.0292 28.1914 67.141 28.1251C67.2548 28.0568 67.3798 28.0227 67.5163 28.0227C67.6394 28.0227 67.7465 28.0474 67.8375 28.0966C67.9303 28.144 68.0042 28.2037 68.0592 28.2757V28.0483H68.3861V29.6146H68.0592V29.3815C68.0042 29.4554 67.9294 29.517 67.8346 29.5662C67.7399 29.6155 67.6319 29.6402 67.5106 29.6402C67.376 29.6402 67.2529 29.606 67.141 29.5378C67.0292 29.4677 66.9402 29.3711 66.8738 29.2479C66.8094 29.1228 66.7772 28.9816 66.7772 28.8243ZM68.0592 28.83C68.0592 28.722 68.0365 28.6282 67.991 28.5486C67.9474 28.469 67.8896 28.4084 67.8176 28.3667C67.7456 28.325 67.6679 28.3041 67.5845 28.3041C67.5011 28.3041 67.4234 28.325 67.3514 28.3667C67.2794 28.4065 67.2206 28.4662 67.1752 28.5458C67.1316 28.6235 67.1098 28.7163 67.1098 28.8243C67.1098 28.9324 67.1316 29.0271 67.1752 29.1086C67.2206 29.1901 67.2794 29.2526 67.3514 29.2962C67.4253 29.3379 67.503 29.3587 67.5845 29.3587C67.6679 29.3587 67.7456 29.3379 67.8176 29.2962C67.8896 29.2545 67.9474 29.1939 67.991 29.1143C68.0365 29.0328 68.0592 28.938 68.0592 28.83Z" fill="#979797"/>
<path d="M69.3575 28.8243C69.3575 28.667 69.3897 28.5278 69.4542 28.4065C69.5205 28.2852 69.6095 28.1914 69.7214 28.1251C69.8351 28.0568 69.9611 28.0227 70.0994 28.0227C70.2018 28.0227 70.3022 28.0455 70.4007 28.0909C70.5012 28.1345 70.5808 28.1933 70.6395 28.2672V27.5111H70.9664V29.6146H70.6395V29.3786C70.5864 29.4544 70.5125 29.517 70.4178 29.5662C70.3249 29.6155 70.2179 29.6402 70.0966 29.6402C69.9601 29.6402 69.8351 29.606 69.7214 29.5378C69.6095 29.4677 69.5205 29.3711 69.4542 29.2479C69.3897 29.1228 69.3575 28.9816 69.3575 28.8243ZM70.6395 28.83C70.6395 28.722 70.6168 28.6282 70.5713 28.5486C70.5277 28.469 70.4699 28.4084 70.3979 28.3667C70.3259 28.325 70.2482 28.3041 70.1648 28.3041C70.0814 28.3041 70.0037 28.325 69.9317 28.3667C69.8597 28.4065 69.8009 28.4662 69.7555 28.5458C69.7119 28.6235 69.6901 28.7163 69.6901 28.8243C69.6901 28.9324 69.7119 29.0271 69.7555 29.1086C69.8009 29.1901 69.8597 29.2526 69.9317 29.2962C70.0056 29.3379 70.0833 29.3587 70.1648 29.3587C70.2482 29.3587 70.3259 29.3379 70.3979 29.2962C70.4699 29.2545 70.5277 29.1939 70.5713 29.1143C70.6168 29.0328 70.6395 28.938 70.6395 28.83Z" fill="#979797"/>
<path d="M73.4813 28.7931C73.4813 28.8518 73.4775 28.9049 73.47 28.9522H72.2732C72.2827 29.0773 72.3291 29.1778 72.4125 29.2536C72.4959 29.3294 72.5982 29.3673 72.7195 29.3673C72.8939 29.3673 73.017 29.2943 73.0891 29.1484H73.4387C73.3913 29.2924 73.3051 29.4109 73.18 29.5037C73.0568 29.5947 72.9033 29.6402 72.7195 29.6402C72.5698 29.6402 72.4353 29.607 72.3159 29.5407C72.1984 29.4724 72.1055 29.3777 72.0373 29.2564C71.971 29.1332 71.9378 28.9911 71.9378 28.83C71.9378 28.6689 71.97 28.5278 72.0345 28.4065C72.1008 28.2833 72.1927 28.1885 72.3102 28.1222C72.4296 28.0559 72.566 28.0227 72.7195 28.0227C72.8673 28.0227 72.999 28.0549 73.1146 28.1194C73.2302 28.1838 73.3203 28.2748 73.3847 28.3923C73.4491 28.5079 73.4813 28.6415 73.4813 28.7931ZM73.1431 28.6907C73.1412 28.5713 73.0985 28.4756 73.0152 28.4036C72.9318 28.3316 72.8285 28.2956 72.7053 28.2956C72.5935 28.2956 72.4978 28.3316 72.4182 28.4036C72.3386 28.4737 72.2912 28.5694 72.2761 28.6907H73.1431Z" fill="#979797"/>
<path d="M76.4972 29.6345C76.3645 29.6345 76.2451 29.6117 76.139 29.5662C76.0329 29.5189 75.9495 29.4525 75.8889 29.3673C75.8282 29.282 75.7979 29.1825 75.7979 29.0688H76.1447C76.1523 29.1541 76.1854 29.2242 76.2442 29.2791C76.3048 29.3341 76.3892 29.3616 76.4972 29.3616C76.609 29.3616 76.6962 29.3351 76.7587 29.282C76.8212 29.227 76.8525 29.1569 76.8525 29.0716C76.8525 29.0053 76.8326 28.9513 76.7928 28.9096C76.7549 28.8679 76.7066 28.8357 76.6478 28.813C76.591 28.7902 76.5114 28.7656 76.4091 28.7391C76.2802 28.7049 76.175 28.6708 76.0935 28.6367C76.0139 28.6007 75.9457 28.5458 75.8889 28.4719C75.832 28.3979 75.8036 28.2994 75.8036 28.1762C75.8036 28.0625 75.832 27.963 75.8889 27.8778C75.9457 27.7925 76.0253 27.7271 76.1276 27.6816C76.23 27.6361 76.3484 27.6134 76.483 27.6134C76.6744 27.6134 76.8307 27.6617 76.952 27.7584C77.0752 27.8531 77.1434 27.9839 77.1567 28.1506H76.7985C76.7928 28.0786 76.7587 28.017 76.6962 27.9659C76.6336 27.9147 76.5512 27.8891 76.4489 27.8891C76.356 27.8891 76.2802 27.9128 76.2214 27.9602C76.1627 28.0076 76.1333 28.0758 76.1333 28.1649C76.1333 28.2255 76.1513 28.2757 76.1873 28.3155C76.2252 28.3534 76.2726 28.3837 76.3295 28.4065C76.3863 28.4292 76.464 28.4538 76.5626 28.4804C76.6933 28.5164 76.7994 28.5524 76.8809 28.5884C76.9643 28.6244 77.0344 28.6803 77.0913 28.7561C77.15 28.83 77.1794 28.9295 77.1794 29.0546C77.1794 29.155 77.1519 29.2498 77.097 29.3388C77.0439 29.4279 76.9653 29.4999 76.861 29.5549C76.7587 29.6079 76.6374 29.6345 76.4972 29.6345Z" fill="#979797"/>
<path d="M78.3804 27.8408C78.3217 27.8408 78.2724 27.8209 78.2326 27.7811C78.1928 27.7413 78.1729 27.692 78.1729 27.6333C78.1729 27.5745 78.1928 27.5253 78.2326 27.4855C78.2724 27.4457 78.3217 27.4258 78.3804 27.4258C78.4373 27.4258 78.4856 27.4457 78.5254 27.4855C78.5652 27.5253 78.5851 27.5745 78.5851 27.6333C78.5851 27.692 78.5652 27.7413 78.5254 27.7811C78.4856 27.8209 78.4373 27.8408 78.3804 27.8408ZM78.5396 28.0483V29.6146H78.2156V28.0483H78.5396Z" fill="#979797"/>
<path d="M81.5149 28.0227C81.638 28.0227 81.748 28.0483 81.8446 28.0995C81.9431 28.1506 82.0199 28.2264 82.0749 28.3269C82.1317 28.4273 82.1601 28.5486 82.1601 28.6907V29.6146H81.8389V28.7391C81.8389 28.5988 81.8039 28.4918 81.7337 28.4178C81.6636 28.342 81.5679 28.3041 81.4466 28.3041C81.3254 28.3041 81.2287 28.342 81.1567 28.4178C81.0866 28.4918 81.0515 28.5988 81.0515 28.7391V29.6146H80.7303V28.7391C80.7303 28.5988 80.6953 28.4918 80.6251 28.4178C80.555 28.342 80.4593 28.3041 80.338 28.3041C80.2168 28.3041 80.1201 28.342 80.0481 28.4178C79.978 28.4918 79.9429 28.5988 79.9429 28.7391V29.6146H79.6189V28.0483H79.9429V28.2274C79.996 28.163 80.0633 28.1127 80.1447 28.0767C80.2262 28.0407 80.3134 28.0227 80.4063 28.0227C80.5313 28.0227 80.6431 28.0493 80.7417 28.1023C80.8402 28.1554 80.916 28.2321 80.9691 28.3326C81.0165 28.2378 81.0904 28.163 81.1908 28.108C81.2913 28.0512 81.3993 28.0227 81.5149 28.0227Z" fill="#979797"/>
<path d="M83.5503 28.2786C83.6053 28.2065 83.6801 28.1459 83.7749 28.0966C83.8697 28.0474 83.9767 28.0227 84.0961 28.0227C84.2326 28.0227 84.3567 28.0568 84.4685 28.1251C84.5822 28.1914 84.6713 28.2852 84.7357 28.4065C84.8001 28.5278 84.8323 28.667 84.8323 28.8243C84.8323 28.9816 84.8001 29.1228 84.7357 29.2479C84.6713 29.3711 84.5822 29.4677 84.4685 29.5378C84.3567 29.606 84.2326 29.6402 84.0961 29.6402C83.9767 29.6402 83.8706 29.6165 83.7777 29.5691C83.6849 29.5198 83.6091 29.4592 83.5503 29.3872V30.3593H83.2263V28.0483H83.5503V28.2786ZM84.5026 28.8243C84.5026 28.7163 84.4799 28.6235 84.4344 28.5458C84.3908 28.4662 84.332 28.4065 84.2581 28.3667C84.1861 28.325 84.1084 28.3041 84.025 28.3041C83.9436 28.3041 83.8659 28.325 83.792 28.3667C83.7199 28.4084 83.6612 28.469 83.6157 28.5486C83.5721 28.6282 83.5503 28.722 83.5503 28.83C83.5503 28.938 83.5721 29.0328 83.6157 29.1143C83.6612 29.1939 83.7199 29.2545 83.792 29.2962C83.8659 29.3379 83.9436 29.3587 84.025 29.3587C84.1084 29.3587 84.1861 29.3379 84.2581 29.2962C84.332 29.2526 84.3908 29.1901 84.4344 29.1086C84.4799 29.0271 84.5026 28.9324 84.5026 28.8243Z" fill="#979797"/>
<path d="M86.1306 27.5111V29.6146H85.8066V27.5111H86.1306Z" fill="#979797"/>
<path d="M88.6454 28.7931C88.6454 28.8518 88.6416 28.9049 88.634 28.9522H87.4373C87.4468 29.0773 87.4932 29.1778 87.5766 29.2536C87.66 29.3294 87.7623 29.3673 87.8836 29.3673C88.0579 29.3673 88.1811 29.2943 88.2531 29.1484H88.6028C88.5554 29.2924 88.4692 29.4109 88.3441 29.5037C88.2209 29.5947 88.0674 29.6402 87.8836 29.6402C87.7339 29.6402 87.5993 29.607 87.4799 29.5407C87.3624 29.4724 87.2696 29.3777 87.2014 29.2564C87.135 29.1332 87.1019 28.9911 87.1019 28.83C87.1019 28.6689 87.1341 28.5278 87.1985 28.4065C87.2648 28.2833 87.3568 28.1885 87.4742 28.1222C87.5936 28.0559 87.7301 28.0227 87.8836 28.0227C88.0314 28.0227 88.1631 28.0549 88.2787 28.1194C88.3943 28.1838 88.4843 28.2748 88.5487 28.3923C88.6132 28.5079 88.6454 28.6415 88.6454 28.7931ZM88.3071 28.6907C88.3052 28.5713 88.2626 28.4756 88.1792 28.4036C88.0958 28.3316 87.9925 28.2956 87.8694 28.2956C87.7576 28.2956 87.6619 28.3316 87.5823 28.4036C87.5027 28.4737 87.4553 28.5694 87.4401 28.6907H88.3071Z" fill="#979797"/>
<path d="M90.0246 27.639L89.9876 29.0176H89.7176L89.6806 27.639H90.0246ZM89.8625 29.6345C89.8038 29.6345 89.7545 29.6146 89.7147 29.5748C89.6749 29.535 89.655 29.4857 89.655 29.427C89.655 29.3682 89.6749 29.3189 89.7147 29.2791C89.7545 29.2394 89.8038 29.2195 89.8625 29.2195C89.9194 29.2195 89.9677 29.2394 90.0075 29.2791C90.0473 29.3189 90.0672 29.3682 90.0672 29.427C90.0672 29.4857 90.0473 29.535 90.0075 29.5748C89.9677 29.6146 89.9194 29.6345 89.8625 29.6345Z" fill="#979797"/>
<path d="M77.1064 8.02976L87.9999 3.82593L86.2141 9.72918L82.4639 8.83475L80.4102 10.8919V8.47698L77.1064 8.02976Z" fill="#6C62F9"/>
<path d="M80.3389 8.47698L87.9937 3.82593L82.4102 8.83475L80.3389 10.8919V8.47698Z" fill="#4D45BD"/>
<path fill-rule="evenodd" clip-rule="evenodd" d="M80.4149 11.9561C80.3018 12.1671 80.1583 12.4033 79.9878 12.6486L79.8669 12.5646C80.0343 12.3237 80.1749 12.0923 80.2851 11.8866L80.4149 11.9561ZM78.4869 12.6982C79.0122 12.7448 79.5295 12.8586 79.9934 13.0589L79.935 13.1941C79.4886 13.0013 78.9872 12.8904 78.4739 12.8449L78.4869 12.6982ZM75.4443 13.1327C75.8597 12.956 76.3799 12.8168 76.9416 12.7398L76.9616 12.8857C76.4105 12.9612 75.9033 13.0974 75.5019 13.2682L75.4443 13.1327ZM78.9254 13.8785C78.5251 14.2473 78.0692 14.5725 77.5721 14.7858L77.514 14.6506C77.9919 14.4455 78.434 14.1311 78.8256 13.7702L78.9254 13.8785ZM81.2267 14.0006C81.3783 14.2042 81.5037 14.4344 81.5969 14.6934C81.6844 14.9365 81.7254 15.1798 81.7249 15.4221L81.5777 15.4217C81.5782 15.1967 81.5402 14.9704 81.4584 14.7433C81.3701 14.4979 81.2516 14.2805 81.1086 14.0885L81.2267 14.0006ZM75.1675 14.7854C74.8395 14.6379 74.6296 14.4716 74.534 14.2893L74.6644 14.221C74.7371 14.3598 74.9108 14.5085 75.2279 14.6512C75.4829 14.766 75.7338 14.838 75.9793 14.8737L75.9581 15.0194C75.6987 14.9816 75.4346 14.9057 75.1675 14.7854ZM81.2889 16.8106C81.0547 17.1934 80.7364 17.5659 80.3591 17.9241L80.2578 17.8174C80.6285 17.4653 80.9376 17.1027 81.1633 16.7338L81.2889 16.8106ZM79.2401 18.8363C78.8586 19.1088 78.4505 19.3702 78.029 19.6182L77.9544 19.4913C78.3727 19.2452 78.7771 18.9861 79.1545 18.7165L79.2401 18.8363ZM76.7644 20.306C76.3271 20.5265 75.889 20.7313 75.4632 20.9182L75.404 20.7834C75.8277 20.5975 76.2634 20.3937 76.6981 20.1745L76.7644 20.306ZM74.1308 21.4626C73.8945 21.5519 73.6682 21.6335 73.4551 21.7067L73.4072 21.5675C73.6189 21.4948 73.8438 21.4137 74.0787 21.3249L74.1308 21.4626Z" fill="black"/>
<defs>
<linearGradient id="paint0_linear_1241_29662" x1="42.0011" y1="14.3472" x2="26.2572" y2="46.3329" gradientUnits="userSpaceOnUse">
<stop stop-color="#4D45BD"/>
<stop offset="1" stop-color="#069DFB"/>
</linearGradient>
<linearGradient id="paint1_linear_1241_29662" x1="85.2904" y1="15.0969" x2="78.2855" y2="35.9086" gradientUnits="userSpaceOnUse">
<stop stop-color="#4D45BD"/>
<stop offset="1" stop-color="#069DFB"/>
</linearGradient>
<linearGradient id="paint2_linear_1241_29662" x1="74.0214" y1="10.1244" x2="68.1332" y2="37.7381" gradientUnits="userSpaceOnUse">
<stop stop-color="#4D45BD"/>
<stop offset="1" stop-color="#069DFB"/>
</linearGradient>
<linearGradient id="paint3_linear_1241_29662" x1="66.8023" y1="8.07612" x2="57.2689" y2="38.9535" gradientUnits="userSpaceOnUse">
<stop stop-color="#4D45BD"/>
<stop offset="1" stop-color="#069DFB"/>
</linearGradient>
<linearGradient id="paint4_linear_1241_29662" x1="41.3314" y1="41.4917" x2="58.2078" y2="15.7083" gradientUnits="userSpaceOnUse">
<stop stop-color="#069DFB"/>
<stop offset="1" stop-color="#4D45BD"/>
</linearGradient>
<linearGradient id="paint5_linear_1241_29662" x1="20.518" y1="5.85911" x2="6.40658" y2="44.1325" gradientUnits="userSpaceOnUse">
<stop stop-color="#4D45BD"/>
<stop offset="1" stop-color="#069DFB"/>
</linearGradient>
</defs>
</svg>
